<?xml version="1.0" encoding="utf-8"?>
<?xml-stylesheet type="text/xsl" href="rss1.xsl"?>
<rss version="2.0" xmlns:atom="http://www.w3.org/2005/Atom" xmlns:content="http://purl.org/rss/1.0/modules/content/" xmlns:dc="http://purl.org/dc/elements/1.1/" xmlns:media="http://search.yahoo.com/mrss/">
<channel>
 <title>Getty</title>
 <link>http://www.gettyimg.com/</link>
 <atom:link href="http://www.gettyimg.com/" rel="self" type="application/rss+xml" />

 
                <item>
                <title><![CDATA[【Music Videos】Slayyyter - I Love Hollywood (4K) [WEB YTxQOBUZ]]]></title>
                <link><![CDATA[https://sharemania.us/threads/slayyyter-i-love-hollywood-4k-web-ytxqobuz.229294/]]></link>
                <description><![CDATA[<article>
<blockquote class="messageText SelectQuoteContainer ugc baseHtml">
<div style="text-align: center"><img src="https://img.youtube.com/vi/U8gtVljq4cg/maxresdefault.jpg" class="bbCodeImage LbImage" alt="[​IMG]" data-url="https://img.youtube.com/vi/U8gtVljq4cg/maxresdefault.jpg" style=""><br>
​</div><br>
<div style="text-align: center">
<div class="bbCodeBlock bbCodeVfcHH HiddenContent">
<div class="attribution type">Hidden Content:</div>
<blockquote>You must reply before you can see the hidden data contained here.</blockquote>
</div></div><br>
<div class="bbCodeBlock bbCodeCode">
<div class="type">Code:</div>
<pre>General
Unique ID                                : 288472928210850468144691051037622402285 (0xD905DD747B90DE375BCE6A99E9E5FCED)
Complete name                            : Slayyyter.I Love Hollywood.4K.WEB.YTxQOBUZ-addlot.mkv
Format                                   : Matroska
Format version                           : Version 4
File size                                : 326 MiB
Duration                                 : 3 min 57 s
Overall bit rate mode                    : Variable
Overall bit rate                         : 11.5 Mb/s
Frame rate                               : 23.976 FPS
Encoded date                             : 2023-09-27 14:51:07 UTC
Writing application                      : mkvmerge v79.0 ('Funeral Pyres') 64-bit
Writing library                          : libebml v1.4.4 + libmatroska v1.7.1 / Lavf58.76.100
Cover                                    : Yes
Attachments                              : cover.jpeg

Video
ID                                       : 1
Format                                   : VP9
Format profile                           : 0
Codec ID                                 : V_VP9
Duration                                 : 3 min 57 s
Bit rate                                 : 10.3 Mb/s
Width                                    : 3 840 pixels
Height                                   : 2 160 pixels
Display aspect ratio                     : 16:9
Frame rate mode                          : Constant
Frame rate                               : 23.976 (24000/1001) FPS
Color space                              : YUV
Chroma subsampling                       : 4:2:0 (Type 1)
Bit depth                                : 8 bits
Bits/(Pixel*Frame)                       : 0.052
Stream size                              : 290 MiB (89%)
Language                                 : English
Default                                  : Yes
Forced                                   : No
Color range                              : Limited
Color primaries                          : BT.709
Transfer characteristics                 : BT.709
Matrix coefficients                      : BT.709

Audio
ID                                       : 2
Format                                   : FLAC
Format/Info                              : Free Lossless Audio Codec
Codec ID                                 : A_FLAC
Duration                                 : 3 min 4 s
Bit rate mode                            : Variable
Bit rate                                 : 1 603 kb/s
Channel(s)                               : 2 channels
Channel layout                           : L R
Sampling rate                            : 44.1 kHz
Frame rate                               : 9.572 FPS (4607 SPF)
Bit depth                                : 24 bits
Compression mode                         : Lossless
Stream size                              : 35.3 MiB (11%)
Writing library                          : Mutagen 1.47.0
Default                                  : Yes
Forced                                   : No
MD5 of the unencoded content             : 00000000000000000000000000000000

</pre>
</div>
<div class="messageTextEndMarker">&nbsp;</div>
</blockquote>
</article>]]></description>
                <author><![CDATA[addlot]]></author>
                </item>

                
                <item>
                <title><![CDATA[【Requests】[REQ VID] - The Weeknd-Out Of Time]]></title>
                <link><![CDATA[https://sharemania.us/threads/the-weeknd-out-of-time.229293/]]></link>
                <description><![CDATA[<article>
<blockquote class="messageText SelectQuoteContainer ugc baseHtml">
Does anyone have this? Most of the links are dead.
<div class="messageTextEndMarker">&nbsp;</div>
</blockquote>
</article>]]></description>
                <author><![CDATA[Sk3ptikal]]></author>
                </item>

                </channel></rss>